<svg width="102" height="39" viewBox="0 0 102 39" fill="none" xmlns="http://www.w3.org/2000/svg">
<path d="M12.48 31.256C10.9653 31.256 9.664 30.936 8.576 30.296C7.488 29.656 6.656 28.6853 6.08 27.384C5.504 26.0613 5.216 24.3973 5.216 22.392C5.216 20.3653 5.51467 18.7013 6.112 17.4C6.73067 16.0987 7.584 15.128 8.672 14.488C9.76 13.848 11.0293 13.528 12.48 13.528C14.1013 13.528 15.552 13.8907 16.832 14.616C18.1333 15.3413 19.1573 16.3653 19.904 17.688C20.672 19.0107 21.056 20.5787 21.056 22.392C21.056 24.184 20.672 25.7413 19.904 27.064C19.1573 28.3867 18.1333 29.4213 16.832 30.168C15.552 30.8933 14.1013 31.256 12.48 31.256ZM2.304 31V7.256H7.296V17.272L6.976 22.36L7.072 27.48V31H2.304ZM11.616 27.16C12.448 27.16 13.184 26.968 13.824 26.584C14.4853 26.2 15.008 25.656 15.392 24.952C15.7973 24.2267 16 23.3733 16 22.392C16 21.3893 15.7973 20.536 15.392 19.832C15.008 19.128 14.4853 18.584 13.824 18.2C13.184 17.816 12.448 17.624 11.616 17.624C10.784 17.624 10.0373 17.816 9.376 18.2C8.71467 18.584 8.192 19.128 7.808 19.832C7.424 20.536 7.232 21.3893 7.232 22.392C7.232 23.3733 7.424 24.2267 7.808 24.952C8.192 25.656 8.71467 26.2 9.376 26.584C10.0373 26.968 10.784 27.16 11.616 27.16ZM28.4618 31.256C27.0324 31.256 25.7524 30.9787 24.6217 30.424C23.5124 29.8693 22.6484 29.0267 22.0297 27.896C21.4111 26.744 21.1017 25.2827 21.1017 23.512V13.784H26.0937V22.776C26.0937 24.2053 26.3924 25.2613 26.9897 25.944C27.6084 26.6053 28.4724 26.936 29.5817 26.936C30.3497 26.936 31.0324 26.776 31.6298 26.456C32.2271 26.1147 32.6964 25.6027 33.0378 24.92C33.3791 24.216 33.5498 23.3413 33.5498 22.296V13.784H38.5417V31H33.8057V26.264L34.6698 27.64C34.0938 28.8347 33.2404 29.7413 32.1097 30.36C31.0004 30.9573 29.7844 31.256 28.4618 31.256ZM39.9665 31V13.784H44.7345V18.648L44.0625 17.24C44.5745 16.024 45.3958 15.1067 46.5265 14.488C47.6572 13.848 49.0332 13.528 50.6545 13.528V18.136C50.4412 18.1147 50.2492 18.104 50.0785 18.104C49.9078 18.0827 49.7265 18.072 49.5345 18.072C48.1692 18.072 47.0598 18.4667 46.2065 19.256C45.3745 20.024 44.9585 21.2293 44.9585 22.872V31H39.9665ZM50.454 31V13.784H55.446V31H50.454ZM52.95 11.384C52.0327 11.384 51.286 11.1173 50.71 10.584C50.134 10.0507 49.846 9.38933 49.846 8.6C49.846 7.81067 50.134 7.14933 50.71 6.616C51.286 6.08267 52.0327 5.816 52.95 5.816C53.8673 5.816 54.614 6.072 55.19 6.584C55.766 7.07467 56.054 7.71467 56.054 8.504C56.054 9.336 55.766 10.0293 55.19 10.584C54.6353 11.1173 53.8887 11.384 52.95 11.384ZM63.919 31.256C61.8923 31.256 60.3137 30.744 59.183 29.72C58.0523 28.6747 57.487 27.128 57.487 25.08V9.976H62.479V25.016C62.479 25.7413 62.671 26.3067 63.055 26.712C63.439 27.096 63.9617 27.288 64.623 27.288C65.4123 27.288 66.0843 27.0747 66.639 26.648L67.983 30.168C67.471 30.5307 66.8523 30.808 66.127 31C65.423 31.1707 64.687 31.256 63.919 31.256ZM54.831 18.008V14.168H66.767V18.008H54.831ZM67.5853 31V13.784H72.5773V31H67.5853ZM70.0813 11.384C69.1639 11.384 68.4173 11.1173 67.8413 10.584C67.2653 10.0507 66.9773 9.38933 66.9773 8.6C66.9773 7.81067 67.2653 7.14933 67.8413 6.616C68.4173 6.08267 69.1639 5.816 70.0813 5.816C70.9986 5.816 71.7453 6.072 72.3213 6.584C72.8973 7.07467 73.1853 7.71467 73.1853 8.504C73.1853 9.336 72.8973 10.0293 72.3213 10.584C71.7666 11.1173 71.0199 11.384 70.0813 11.384ZM81.7607 31.256C80.9074 31.256 80.1714 30.968 79.5527 30.392C78.9554 29.7947 78.6567 29.0373 78.6567 28.12C78.6567 27.2027 78.9554 26.4667 79.5527 25.912C80.1714 25.336 80.9074 25.048 81.7607 25.048C82.6354 25.048 83.3714 25.336 83.9687 25.912C84.5661 26.4667 84.8647 27.2027 84.8647 28.12C84.8647 29.0373 84.5661 29.7947 83.9687 30.392C83.3714 30.968 82.6354 31.256 81.7607 31.256Z" fill="#FF914D"/>
</svg>
