<svg width="50" height="50" viewBox="0 0 50 50" fill="none" xmlns="http://www.w3.org/2000/svg">
<rect width="50" height="50" rx="25" fill="white"/>
<path d="M12.5 20.625V31.2759C12.5 32.2636 12.8763 33.2108 13.546 33.9092C14.2158 34.6076 15.1242 35 16.0714 35H33.9286C34.8758 35 35.7842 34.6076 36.454 33.9092C37.1237 33.2108 37.5 32.2636 37.5 31.2759V20.625L26.8714 27.4438C26.3086 27.8049 25.6608 27.996 25 27.996C24.3392 27.996 23.6914 27.8049 23.1286 27.4438L12.5 20.625Z" fill="#FF914D"/>
<path d="M37.5 18.3822V18.1817C37.5 17.1721 37.1237 16.2039 36.454 15.49C35.7842 14.7761 34.8758 14.375 33.9286 14.375H16.0714C15.1242 14.375 14.2158 14.7761 13.546 15.49C12.8763 16.2039 12.5 17.1721 12.5 18.1817V18.3822L24.0643 25.9678C24.3457 26.1523 24.6696 26.25 25 26.25C25.3304 26.25 25.6543 26.1523 25.9357 25.9678L37.5 18.3822Z" fill="#FF914D"/>
</svg>
