<svg width="50" height="50" viewBox="0 0 50 50" fill="none" xmlns="http://www.w3.org/2000/svg">
<rect width="50" height="50" rx="25" fill="white"/>
<path fill-rule="evenodd" clip-rule="evenodd" d="M24.75 13.5781C18.5797 13.5781 13.5781 18.5797 13.5781 24.75C13.5781 30.9203 18.5797 35.9219 24.75 35.9219C30.9203 35.9219 35.9219 30.9203 35.9219 24.75C35.9219 18.5797 30.9203 13.5781 24.75 13.5781ZM25.6094 17.875C25.6094 17.6471 25.5188 17.4285 25.3577 17.2673C25.1965 17.1062 24.9779 17.0156 24.75 17.0156C24.5221 17.0156 24.3035 17.1062 24.1423 17.2673C23.9812 17.4285 23.8906 17.6471 23.8906 17.875V24.75C23.8906 25.2244 24.2756 25.6094 24.75 25.6094H29.9062C30.1342 25.6094 30.3528 25.5188 30.5139 25.3577C30.6751 25.1965 30.7656 24.9779 30.7656 24.75C30.7656 24.5221 30.6751 24.3035 30.5139 24.1423C30.3528 23.9812 30.1342 23.8906 29.9062 23.8906H25.6094V17.875Z" fill="#FF914D"/>
</svg>
