<svg width="50" height="50" viewBox="0 0 50 50" fill="none" xmlns="http://www.w3.org/2000/svg">
<rect width="50" height="50" rx="25" fill="white"/>
<path fill-rule="evenodd" clip-rule="evenodd" d="M13.5 16.7857C13.5 15.9143 13.8462 15.0786 14.4624 14.4624C15.0786 13.8462 15.9143 13.5 16.7857 13.5H18.2884C19.2303 13.5 20.0517 14.1418 20.2806 15.0552L21.4909 19.8995C21.5889 20.2916 21.5691 20.7039 21.4339 21.0848C21.2987 21.4657 21.0541 21.7982 20.7308 22.0407L19.3146 23.103C19.1668 23.2137 19.135 23.3758 19.1766 23.4886C19.7947 25.1696 20.7708 26.6962 22.0373 27.9627C23.3038 29.2292 24.8304 30.2053 26.5114 30.8234C26.6242 30.865 26.7852 30.8332 26.897 30.6854L27.9593 29.2692C28.2018 28.9459 28.5343 28.7013 28.9152 28.5661C29.2961 28.4309 29.7084 28.4111 30.1005 28.5091L34.9448 29.7194C35.8582 29.9483 36.5 30.7697 36.5 31.7127V33.2143C36.5 34.0857 36.1538 34.9214 35.5376 35.5376C34.9214 36.1538 34.0857 36.5 33.2143 36.5H30.75C21.2236 36.5 13.5 28.7764 13.5 19.25V16.7857Z" fill="#FF914D"/>
</svg>
