<svg width="50" height="50" viewBox="0 0 50 50" fill="none" xmlns="http://www.w3.org/2000/svg">
<rect width="50" height="50" rx="25" fill="white"/>
<path fill-rule="evenodd" clip-rule="evenodd" d="M24.5208 35.7823L24.5937 35.824L24.6229 35.8406C24.7386 35.9032 24.868 35.9359 24.9995 35.9359C25.131 35.9359 25.2604 35.9032 25.376 35.8406L25.4052 35.825L25.4792 35.7823C25.8866 35.5407 26.2841 35.2829 26.6708 35.0094C27.672 34.3026 28.6073 33.507 29.4656 32.6323C31.4906 30.5594 33.5938 27.4448 33.5938 23.4375C33.5938 21.1583 32.6883 18.9724 31.0767 17.3608C29.4651 15.7492 27.2792 14.8438 25 14.8438C22.7208 14.8438 20.5349 15.7492 18.9233 17.3608C17.3117 18.9724 16.4062 21.1583 16.4062 23.4375C16.4062 27.4437 18.5104 30.5594 20.5344 32.6323C21.3923 33.507 22.3274 34.3025 23.3281 35.0094C23.7152 35.2829 24.1131 35.5407 24.5208 35.7823ZM25 26.5625C25.8288 26.5625 26.6237 26.2333 27.2097 25.6472C27.7958 25.0612 28.125 24.2663 28.125 23.4375C28.125 22.6087 27.7958 21.8138 27.2097 21.2278C26.6237 20.6417 25.8288 20.3125 25 20.3125C24.1712 20.3125 23.3763 20.6417 22.7903 21.2278C22.2042 21.8138 21.875 22.6087 21.875 23.4375C21.875 24.2663 22.2042 25.0612 22.7903 25.6472C23.3763 26.2333 24.1712 26.5625 25 26.5625Z" fill="#FF914D"/>
</svg>
