<svg width="48" height="48" viewBox="0 0 48 48" fill="none" xmlns="http://www.w3.org/2000/svg">
<path d="M31.5 24C31.5 25.9891 30.7098 27.8968 29.3033 29.3033C27.8968 30.7098 25.9891 31.5 24 31.5C22.0109 31.5 20.1032 30.7098 18.6967 29.3033C17.2902 27.8968 16.5 25.9891 16.5 24C16.5 22.0109 17.2902 20.1032 18.6967 18.6967C20.1032 17.2902 22.0109 16.5 24 16.5C25.9891 16.5 27.8968 17.2902 29.3033 18.6967C30.7098 20.1032 31.5 22.0109 31.5 24Z" fill="white"/>
<path d="M0 24C0 24 9 7.5 24 7.5C39 7.5 48 24 48 24C48 24 39 40.5 24 40.5C9 40.5 0 24 0 24ZM24 34.5C26.7848 34.5 29.4555 33.3938 31.4246 31.4246C33.3938 29.4555 34.5 26.7848 34.5 24C34.5 21.2152 33.3938 18.5445 31.4246 16.5754C29.4555 14.6062 26.7848 13.5 24 13.5C21.2152 13.5 18.5445 14.6062 16.5754 16.5754C14.6062 18.5445 13.5 21.2152 13.5 24C13.5 26.7848 14.6062 29.4555 16.5754 31.4246C18.5445 33.3938 21.2152 34.5 24 34.5Z" fill="white"/>
</svg>
