<svg width="24" height="24" viewBox="0 0 24 24" fill="none" xmlns="http://www.w3.org/2000/svg">
<path d="M11.6999 2.80505C11.7946 2.76375 11.8967 2.74243 11.9999 2.74243C12.1032 2.74243 12.2053 2.76375 12.2999 2.80505C15.998 4.42145 19.5255 6.40294 22.8299 8.72005C22.9464 8.80171 23.0372 8.91481 23.0918 9.04614C23.1464 9.17748 23.1626 9.32163 23.1384 9.46179C23.1141 9.60195 23.0506 9.73233 22.9551 9.83773C22.8596 9.94312 22.736 10.0192 22.5989 10.057C19.1683 11.0045 15.8488 12.316 12.6969 13.969L12.6939 13.971C12.5799 14.031 12.4669 14.09 12.3539 14.151C12.2452 14.2092 12.1238 14.2396 12.0004 14.2396C11.8771 14.2396 11.7557 14.2092 11.6469 14.151C10.2951 13.4296 8.91135 12.7696 7.49994 12.173V11.949C7.49994 11.818 7.56694 11.701 7.67194 11.638C9.18131 10.7234 10.7341 9.88237 12.3249 9.11805C12.5042 9.03185 12.6419 8.87796 12.7078 8.69024C12.7736 8.50252 12.7621 8.29633 12.6759 8.11704C12.5897 7.93776 12.4359 7.80006 12.2481 7.73423C12.0604 7.66841 11.8542 7.67985 11.6749 7.76605C10.0407 8.55133 8.44552 9.41534 6.89494 10.355C6.67434 10.4889 6.48403 10.6672 6.33614 10.8786C6.18824 11.09 6.08601 11.3299 6.03594 11.583C4.51715 10.9986 2.97063 10.489 1.40194 10.056C1.26483 10.0182 1.14132 9.94212 1.04581 9.83673C0.9503 9.73133 0.886728 9.60095 0.862512 9.46079C0.838297 9.32063 0.854435 9.17648 0.909045 9.04514C0.963655 8.91381 1.05449 8.80071 1.17094 8.71905C4.47513 6.40236 8.00227 4.42121 11.6999 2.80505Z" fill="#FF914D"/>
<path d="M13.0598 15.4729C15.516 14.1607 18.0809 13.0626 20.7258 12.1909C20.8598 13.6049 20.9458 15.0339 20.9808 16.4749C20.9846 16.626 20.9428 16.7747 20.8607 16.9016C20.7786 17.0284 20.6601 17.1276 20.5208 17.1859C17.686 18.3699 14.9719 19.8239 12.4158 21.5279C12.2926 21.6101 12.1478 21.6539 11.9998 21.6539C11.8517 21.6539 11.707 21.6101 11.5838 21.5279C9.028 19.824 6.31415 18.3699 3.47977 17.1859C3.34037 17.1278 3.22178 17.0289 3.13952 16.9022C3.05726 16.7755 3.01518 16.6269 3.01877 16.4759C3.05377 15.0339 3.13977 13.6059 3.27377 12.1899C4.19477 12.4939 5.10377 12.8239 5.99977 13.1799V14.4499C5.7837 14.5744 5.60208 14.7508 5.47133 14.9632C5.34058 15.1755 5.26483 15.4171 5.25094 15.666C5.23704 15.915 5.28543 16.1635 5.39173 16.3891C5.49804 16.6147 5.6589 16.8102 5.85977 16.9579C5.76977 17.3379 5.63777 17.7109 5.46277 18.0679C5.91477 18.2809 6.36377 18.5019 6.80877 18.7279C7.05961 18.2177 7.24475 17.6777 7.35977 17.1209C7.61265 17.0085 7.8295 16.8283 7.98632 16.6003C8.14313 16.3722 8.2338 16.1052 8.24829 15.8289C8.26278 15.5525 8.20053 15.2775 8.06843 15.0343C7.93632 14.7911 7.73951 14.5892 7.49977 14.4509V13.8059C8.66787 14.3162 9.81543 14.8723 10.9398 15.4729C11.2659 15.6471 11.63 15.7383 11.9998 15.7383C12.3695 15.7383 12.7336 15.6471 13.0598 15.4729Z" fill="#FF914D"/>
<path d="M4.46201 19.4619C4.88201 19.0429 5.21501 18.5719 5.46201 18.0669C5.91501 18.2809 6.36401 18.5019 6.80901 18.7289C6.48181 19.3935 6.04732 19.9996 5.52301 20.5229C5.38084 20.6554 5.19279 20.7275 4.99849 20.7241C4.80419 20.7206 4.6188 20.6419 4.48139 20.5045C4.34398 20.3671 4.26526 20.1817 4.26184 19.9874C4.25841 19.7931 4.33053 19.6051 4.46301 19.4629L4.46201 19.4619Z" fill="#FF914D"/>
</svg>
